<svg width="180" height="180" viewBox="0 0 180 180" fill="none" xmlns="http://www.w3.org/2000/svg">
<g clip-path="url(#clip0_5_1069)">
<path d="M144 0H36C16.1177 0 0 16.1177 0 36V144C0 163.882 16.1177 180 36 180H144C163.882 180 180 163.882 180 144V36C180 16.1177 163.882 0 144 0Z" fill="#005F73"/>
<path d="M139.8 83.9865C139.167 81.9441 133.99 78.0668 132.188 76.2974C130.047 74.2004 125.919 70.1155 125.58 67.2758C125.329 65.2443 126.104 63.3002 126.29 61.3233C126.803 55.6876 122.282 44.842 118.688 40.2329C117.105 38.2014 115.04 36.585 113.14 34.8156C112.878 34.3023 114.254 34.0947 114.057 33.505C113.271 33.6797 112.878 34.204 111.971 34.0183C111.01 33.8217 110.388 32.1179 108.585 32.0086C106.084 31.8557 103.43 33.7562 102.032 35.5474C101.377 36.3884 100.689 37.5352 100.339 38.5072C101.77 36.9782 102.786 34.9139 104.763 33.8872C106.969 32.7295 107.449 33.6906 109.186 34.6955C109.634 34.9576 110.824 35.034 110.114 35.744L99.4764 40.8227L99.4 40.2766C97.9474 42.9634 94.9656 43.4768 92.6829 45.4209C85.529 51.5263 83.6067 61.083 85.2232 69.7005C85.6273 71.8085 86.3919 73.9055 86.6431 76.0353C81.2039 75.6749 76.1907 73.1082 71.8765 70.1811C65.6837 65.987 56.7386 56.8125 48.2194 60.5588C45.2923 61.8476 40.7269 68.0841 40.0388 70.9784C39.9733 71.2624 39.9515 71.3388 40.301 71.2842C42.1359 67.7018 44.8773 61.8694 49.4536 60.8974C53.4947 60.0345 57.7762 62.0551 61.0419 64.1303C64.6352 66.4239 67.3002 69.8643 70.5768 72.4966C75.4043 76.3739 78.812 77.3787 84.9938 78.5692C86.7523 78.9078 87.5496 78.4381 88.609 80.0983C90.007 82.2717 91.0119 85.3518 92.2024 87.7328C93.939 91.2278 96.1671 94.5372 97.8927 98.0213C101.748 105.841 103.103 114.568 101.945 123.098C101.879 123.59 102.141 124.201 101.552 124.245C101.617 124.595 101.563 124.944 101.388 125.25C101.333 125.337 101.268 125.425 101.202 125.49C101.3 125.512 101.388 125.523 101.442 125.599C101.442 125.599 101.475 125.654 101.486 125.687C100.787 129.105 98.69 132.491 96.6913 135.418C94.8127 138.171 89.3517 145.346 86.2608 146.46C84.9392 146.941 83.1699 147.007 82.1104 145.991C80.6687 144.582 80.2755 138.029 79.8933 135.866C79.3144 132.633 77.9055 127.991 76.0487 125.206C75.8303 124.868 75.3934 124.092 74.891 124.507C74.5633 124.966 75.732 127.118 75.9504 127.729C77.8618 133.278 77.6652 139.307 79.5984 144.789C80.625 147.716 82.1214 149.508 85.7256 148.383C89.9415 147.061 93.4366 141.939 95.7302 138.575C98.4388 134.61 100.765 130.569 102.109 126.003C102.414 125.829 105.582 127.074 106.193 127.249C112.67 129.105 125.318 132.491 128.889 124.955C130.921 120.641 128.005 119.428 128.048 115.365C128.616 114.568 128.835 112.591 129.49 111.969C129.971 111.499 131.314 111.499 131.871 111.106C132.384 110.735 133.138 109.074 133.127 108.463C133.116 107.207 131.631 106.082 131.838 105.23C131.893 105.011 133.346 104.061 133.586 103.81C136.207 101.123 132.941 98.906 132.712 96.1209C132.57 94.3297 133.433 92.2545 134.613 90.8455C135.344 89.9608 135.781 90.0591 136.6 89.5786C138.752 88.3007 140.609 86.5423 139.811 83.9647L139.8 83.9865ZM135.803 87.9184C135.202 89.9608 133.455 89.4038 131.675 89.7643C130.353 90.0264 128.911 90.6489 127.568 90.9548C127.131 91.053 125.973 91.337 125.635 91.3261C125.056 91.3261 124.411 90.7145 124.39 90.1793C124.379 89.6769 125.493 87.9403 125.908 87.5908C126.115 87.416 127.317 86.7607 127.612 86.6624C128.966 86.1709 133.051 85.6248 134.438 85.876C135.694 86.1163 136.174 86.717 135.814 87.9294L135.803 87.9184ZM136.994 88.0713C136.513 88.0823 136.95 87.2413 136.928 86.9354C136.917 86.2801 136.426 85.6467 135.759 85.4282C134.329 84.9586 131.784 85.2316 130.266 85.3518C129.479 85.4173 128.595 85.3627 127.819 85.6248C125.449 86.4003 121.364 89.9172 124.608 92.0033C125.984 92.8879 128.54 91.4135 130.014 91.064C130.473 90.9657 133.433 90.5179 133.575 90.6489C133.04 91.9923 131.926 93.2921 131.609 94.7119C130.997 97.497 133.914 98.8514 133.433 102.237C133.346 102.838 131.718 105.088 131.107 104.596C131.063 104.301 130.943 104.061 130.976 103.755C131.052 103.002 131.948 101.811 132.068 101.112C132.079 101.014 132.111 100.086 132.1 99.9326C132.057 99.048 130.877 98.5455 130.014 98.6329C128.933 98.7531 127.972 99.9436 127.186 100.522C125.099 102.073 122.664 103.919 119.791 104.312C118.918 104.433 117.181 104.072 117.247 105.383C118.066 105.525 118.863 105.885 119.682 106.038C121.921 106.442 126.104 105.863 128.54 105.656C129.119 105.612 129.741 105.295 130.298 105.503C131.718 106.846 133.324 109.959 130.681 110.909C127.338 111.423 123.636 110.156 121.32 107.895L121.473 107.491C123.483 107.589 126.902 107.742 128.54 108.921C129.064 109.293 129.326 110.046 129.993 110.265C130.266 109.282 128.944 108.343 128.081 107.982C126.672 107.381 122.489 106.835 120.971 107.021C120.774 107.054 120.206 107.174 120.163 107.36C120.206 107.611 120.392 107.851 120.545 108.059C121.233 108.987 124.095 110.418 125.263 110.866C125.766 111.062 128.387 111.75 128.463 111.969C127.994 113.192 127.022 114.404 127.011 115.748C127 119.123 129.807 121.46 128.158 125.075C126.683 128.297 122.992 128.363 119.791 129.094C113.741 128.559 108.007 126.582 102.414 124.529C102.371 124.518 102.338 124.496 102.305 124.485C102.262 121.416 103.266 118.413 103.113 115.333C102.895 110.56 101.803 105.612 100.012 101.156C96.9534 93.5651 92.0931 86.7061 88.8602 79.1808C88.9476 78.9842 89.1224 78.8859 89.3408 78.8422C90.1381 78.7003 91.7 79.017 92.6939 78.9733C100.492 78.733 110.955 75.7622 114.68 84.5326C116.799 89.5021 115.641 93.0736 114.101 97.9339C113.391 100.184 112.594 101.56 111.665 103.657C111.239 104.618 110.934 105.634 110.53 106.595C110.803 106.464 110.999 106.115 111.141 105.874C112.474 103.548 114.025 99.8999 114.822 97.3878C116.853 90.9111 117.345 83.0691 110.519 78.9187C103.791 74.8339 95.195 76.8981 87.637 76.3411C87.5168 76.2646 86.938 74.2987 86.8506 73.9601C84.4368 65.4191 84.8519 52.968 92.0167 46.3929C93.0543 45.4318 95.8176 43.6406 97.1719 43.1928C97.3903 43.1163 97.3466 43.018 97.5651 43.2802C97.019 44.3614 96.4838 45.4973 96.0688 46.6332C94.6817 50.3795 93.7642 54.7483 94.2339 58.713C94.2557 58.9423 94.3103 59.3028 94.6598 59.2045C94.07 54.0602 95.3151 48.49 97.7398 43.8481C98.4388 42.5265 98.701 41.9695 100.001 41.0739C102.24 39.523 105.254 38.4963 107.777 37.3277C109.35 36.6068 110.551 35.2852 112.375 36.4976C115.597 38.6492 119.496 44.3833 121.2 47.7254C122.598 50.445 124.706 55.5128 124.968 58.4508C125.274 62.066 123.057 64.1958 124.564 68.3025C126.115 72.4966 132.8 78.5473 136.262 81.682C136.917 82.2717 138.905 83.6152 138.949 84.4671C139.003 85.3408 137.955 87.7874 136.983 88.0495L136.994 88.0713ZM129.894 104.159C126.891 104.607 123.8 105.284 120.742 104.869C120.709 104.509 120.742 104.651 120.96 104.607C122.576 104.269 124.619 103.144 125.973 102.226C126.913 101.582 129.239 99.3101 130.298 99.3101C132.319 99.3319 130.156 103.297 129.894 104.159Z" fill="white"/>
<path d="M70.7733 119.101C65.6181 118.227 60.736 125.02 58.5952 128.657C57.2191 130.984 56.2798 133.714 54.4449 135.768C52.2386 138.214 50.3164 138.935 48.121 135.964C45.9912 133.092 44.5495 128.111 43.6102 123.098C43.5338 123.054 43.4573 123.011 43.3809 122.978C43.3809 122.978 43.3809 122.978 43.37 122.978C43.2826 123 43.1952 123.022 43.1188 123.044C43.0532 123.076 42.9768 123.12 42.9112 123.164C42.8566 123.218 42.7911 123.273 42.7365 123.328C42.6928 123.404 42.6491 123.48 42.6054 123.557C42.5945 123.612 42.5945 123.655 42.5836 123.71C43.3044 128.384 45.2922 137.035 48.9074 138.902C54.4449 141.742 57.9181 132.185 59.6656 128.985C61.3803 125.851 64.6679 120.903 68.5561 119.909C69.976 119.549 70.959 120.073 72.3788 120.007C72.7392 119.712 70.9699 119.155 70.7842 119.123L70.7733 119.101Z" fill="white"/>
<path d="M109.776 65.1461C109.776 65.1461 109.82 64.9604 109.929 64.9276C110.344 64.8075 111.917 64.3925 112.233 64.3815C113.053 64.3597 113.489 65.3099 113.773 65.8997C114.549 67.5489 114.876 69.493 115.051 71.2733C113.981 70.4214 113.118 65.856 112.004 65.5065C111.665 65.3973 111.283 65.4191 110.934 65.4847C108.443 65.8888 105.56 67.9421 103.037 67.6145C101.879 67.4615 101.3 65.9215 101.224 64.9604C101.06 63.0272 102.185 61.1268 104.086 60.3404C106.477 59.3465 109.328 60.6353 111.687 61.0503C113.227 61.3234 115.805 61.1705 117.41 61.0831C119.42 60.9739 119.912 59.6414 118.153 58.5601C116.766 57.7082 114.068 57.3368 112.419 56.8453C112.266 56.8017 111.829 56.6924 111.829 56.5068C112.135 56.4849 112.43 56.5068 112.736 56.5395C113.915 56.7034 116.395 57.2604 117.465 57.6973C119.027 58.3307 121.015 59.8817 120.501 61.651C120.316 62.0005 119.573 62.0333 119.18 62.0551C117.421 62.1644 113.959 62.0005 112.212 61.7712C109.547 61.4217 104.293 59.1827 102.72 62.3282C101.868 64.032 101.431 67.8984 104.577 67.0356C106.183 66.5878 108.007 65.6703 109.754 65.1352L109.776 65.1461Z" fill="white"/>
<path d="M100.536 68.663C100.285 68.4009 99.9789 68.0623 100.044 67.6909C100.11 67.1885 101.246 68.521 101.366 68.6302C104.228 70.9129 109.951 72.4202 113.664 72.0925C114.593 72.016 115.521 71.6119 116.482 71.459C117.356 71.317 119.311 70.8583 119.071 72.2345C118.95 72.9444 117.41 73.3813 116.722 73.4468C111.633 73.9056 104.064 72.3219 100.525 68.663H100.536Z" fill="white"/>
<path d="M108.651 57.0638C107.821 57.8284 106.565 58.025 105.56 58.4509C103.66 59.2591 98.7119 61.7275 96.9098 61.804C96.3855 61.8258 96.0142 61.6401 95.5336 61.5309L98.8867 60.7882C102.174 59.5868 105.079 57.5225 108.651 57.0638Z" fill="white"/>
</g>
<defs>
<clipPath id="clip0_5_1069">
<rect width="180" height="180" fill="white"/>
</clipPath>
</defs>
</svg>
