<svg width="32" height="32" viewBox="0 0 32 32" fill="none" xmlns="http://www.w3.org/2000/svg">
<path d="M26 0H6C2.68629 0 0 2.68629 0 6V26C0 29.3137 2.68629 32 6 32H26C29.3137 32 32 29.3137 32 26V6C32 2.68629 29.3137 0 26 0Z" fill="#005F73"/>
<path d="M26.9581 14.9171C26.8251 14.4882 25.7379 13.674 25.3594 13.3024C24.9099 12.8621 24.0429 12.0042 23.9718 11.4079C23.9191 10.9813 24.0819 10.573 24.1209 10.1579C24.2287 8.97437 23.2791 6.6968 22.5245 5.72889C22.192 5.30228 21.7585 4.96282 21.3594 4.59125C21.3043 4.48345 21.5933 4.43988 21.552 4.31602C21.3869 4.35272 21.3043 4.46281 21.114 4.42382C20.9121 4.38253 20.7814 4.02473 20.4029 4.00179C19.8777 3.96968 19.3203 4.36877 19.0268 4.74493C18.8891 4.92154 18.7446 5.16237 18.6712 5.3665C18.9717 5.04539 19.185 4.6119 19.6002 4.3963C20.0635 4.15317 20.1644 4.35501 20.5291 4.56602C20.6231 4.62107 20.8731 4.63713 20.724 4.78621L18.49 5.85275L18.474 5.73807C18.1689 6.3023 17.5428 6.4101 17.0634 6.81836C15.5611 8.1005 15.1574 10.1074 15.4969 11.9171C15.5817 12.3598 15.7423 12.8001 15.795 13.2474C14.6528 13.1717 13.6 12.6327 12.6941 12.018C11.3936 11.1373 9.51511 9.21061 7.72608 9.99732C7.11139 10.268 6.15265 11.5776 6.00815 12.1854C5.99439 12.2451 5.98981 12.2611 6.0632 12.2497C6.44853 11.4974 7.02423 10.2726 7.98526 10.0684C8.8339 9.88723 9.733 10.3116 10.4188 10.7473C11.1734 11.229 11.733 11.9515 12.4211 12.5043C13.4349 13.3185 14.1505 13.5295 15.4487 13.7795C15.818 13.8506 15.9854 13.752 16.2079 14.1006C16.5015 14.557 16.7125 15.2038 16.9625 15.7039C17.3272 16.4378 17.7951 17.1328 18.1575 17.8645C18.9671 19.5067 19.2515 21.3393 19.0084 23.1306C18.9946 23.2338 19.0497 23.3623 18.9258 23.3714C18.9396 23.4448 18.9281 23.5182 18.8914 23.5825C18.88 23.6008 18.8662 23.6191 18.8524 23.6329C18.8731 23.6375 18.8914 23.6398 18.9029 23.6558C18.9029 23.6558 18.9098 23.6673 18.9121 23.6742C18.7653 24.3921 18.3249 25.1031 17.9052 25.7178C17.5107 26.2958 16.3639 27.8027 15.7148 28.0367C15.4372 28.1376 15.0657 28.1514 14.8432 27.938C14.5404 27.6422 14.4579 26.266 14.3776 25.8119C14.256 25.1329 13.9601 24.1582 13.5702 23.5733C13.5244 23.5022 13.4326 23.3393 13.3271 23.4265C13.2583 23.5228 13.5037 23.9747 13.5496 24.1031C13.951 25.2683 13.9097 26.5343 14.3157 27.6857C14.5313 28.3004 14.8455 28.6766 15.6024 28.4403C16.4877 28.1628 17.2217 27.0871 17.7033 26.3807C18.2722 25.5481 18.7607 24.6994 19.0428 23.7407C19.107 23.704 19.7722 23.9655 19.9006 24.0022C21.2607 24.3921 23.9168 25.1031 24.6668 23.5205C25.0934 22.6145 24.481 22.36 24.4902 21.5067C24.6094 21.3393 24.6553 20.9241 24.7929 20.7934C24.8938 20.6948 25.176 20.6948 25.2929 20.6122C25.4007 20.5342 25.559 20.1856 25.5567 20.0572C25.5544 19.7934 25.2425 19.5571 25.2861 19.3782C25.2975 19.3324 25.6026 19.1328 25.653 19.0801C26.2035 18.5158 25.5177 18.0502 25.4695 17.4654C25.4397 17.0892 25.6209 16.6534 25.8686 16.3575C26.0223 16.1718 26.1141 16.1924 26.2861 16.0915C26.7379 15.8231 27.1278 15.4539 26.9604 14.9126L26.9581 14.9171ZM26.1186 15.7428C25.9925 16.1718 25.6255 16.0548 25.2516 16.1305C24.9741 16.1855 24.6714 16.3163 24.3893 16.3805C24.2975 16.4011 24.0544 16.4608 23.9833 16.4585C23.8617 16.4585 23.7264 16.33 23.7218 16.2176C23.7195 16.1121 23.9535 15.7474 24.0406 15.674C24.0842 15.6373 24.3365 15.4997 24.3984 15.4791C24.6828 15.3759 25.5406 15.2612 25.8319 15.3139C26.0957 15.3644 26.1966 15.4906 26.1209 15.7451L26.1186 15.7428ZM26.3686 15.775C26.2677 15.7773 26.3595 15.6006 26.3549 15.5364C26.3526 15.3988 26.2494 15.2658 26.1095 15.2199C25.809 15.1213 25.2746 15.1786 24.9558 15.2038C24.7906 15.2176 24.6048 15.2061 24.442 15.2612C23.9443 15.424 23.0865 16.1626 23.7677 16.6007C24.0567 16.7864 24.5934 16.4768 24.903 16.4034C24.9994 16.3828 25.6209 16.2887 25.6507 16.3163C25.5384 16.5984 25.3044 16.8713 25.2379 17.1695C25.1094 17.7544 25.7218 18.0388 25.6209 18.7498C25.6026 18.8759 25.2608 19.3484 25.1324 19.2452C25.1232 19.1833 25.098 19.1328 25.1049 19.0686C25.1209 18.9103 25.309 18.6603 25.3342 18.5135C25.3365 18.4929 25.3434 18.2979 25.3411 18.2658C25.3319 18.0801 25.0842 17.9745 24.903 17.9929C24.676 18.0181 24.4741 18.2681 24.309 18.3897C23.8709 18.7154 23.3594 19.103 22.7562 19.1856C22.5727 19.2108 22.208 19.1351 22.2218 19.4104C22.3938 19.4402 22.5612 19.5159 22.7333 19.548C23.2034 19.6328 24.0819 19.5113 24.5934 19.4677C24.7149 19.4585 24.8457 19.392 24.9627 19.4356C25.2608 19.7177 25.598 20.3714 25.0429 20.5709C24.3411 20.6787 23.5635 20.4127 23.0773 19.9379L23.1094 19.853C23.5314 19.8737 24.2493 19.9058 24.5934 20.1535C24.7035 20.2315 24.7585 20.3897 24.8984 20.4356C24.9558 20.2292 24.6782 20.0319 24.4971 19.9562C24.2012 19.8301 23.3227 19.7154 23.0039 19.7544C22.9626 19.7613 22.8433 19.7865 22.8342 19.8255C22.8433 19.8783 22.8823 19.9287 22.9144 19.9723C23.0589 20.1672 23.6599 20.4677 23.9053 20.5618C24.0108 20.603 24.5613 20.7475 24.5773 20.7934C24.4787 21.0503 24.2746 21.3049 24.2723 21.587C24.27 22.2957 24.8594 22.7866 24.5131 23.5458C24.2035 24.2224 23.4282 24.2361 22.7562 24.3898C21.4855 24.2774 20.2814 23.8623 19.107 23.4311C19.0979 23.4288 19.091 23.4242 19.0841 23.4219C19.0749 22.7774 19.2859 22.1466 19.2538 21.4998C19.208 20.4975 18.9786 19.4585 18.6024 18.5227C17.9602 16.9287 16.9396 15.4883 16.2606 13.908C16.279 13.8667 16.3157 13.846 16.3616 13.8368C16.529 13.807 16.857 13.8735 17.0657 13.8644C18.7034 13.8139 20.9006 13.19 21.6828 15.0318C22.1277 16.0754 21.8846 16.8254 21.5612 17.8461C21.4121 18.3186 21.2447 18.6076 21.0497 19.048C20.9603 19.2498 20.8961 19.4631 20.8112 19.6649C20.8685 19.6374 20.9098 19.564 20.9396 19.5136C21.2195 19.025 21.5452 18.259 21.7126 17.7314C22.1392 16.3713 22.2424 14.7245 20.8089 13.8529C19.396 12.9951 17.591 13.4286 16.0038 13.3116C15.9785 13.2956 15.857 12.8827 15.8386 12.8116C15.3317 11.018 15.4189 8.40326 16.9235 7.02249C17.1414 6.82066 17.7217 6.4445 18.0061 6.35046C18.052 6.33441 18.0428 6.31377 18.0887 6.36881C17.974 6.59588 17.8616 6.83442 17.7744 7.07295C17.4832 7.85967 17.2905 8.77712 17.3891 9.6097C17.3937 9.65787 17.4052 9.73356 17.4786 9.71291C17.3547 8.63262 17.6162 7.46287 18.1254 6.48808C18.2722 6.21055 18.3272 6.09358 18.6001 5.9055C19.0703 5.57981 19.7034 5.36421 20.2332 5.11879C20.5635 4.96741 20.8158 4.68988 21.1988 4.94447C21.8754 5.39632 22.6943 6.60047 23.0521 7.30232C23.3457 7.87343 23.7883 8.93767 23.8434 9.55466C23.9076 10.3138 23.442 10.7611 23.7585 11.6235C24.0842 12.5043 25.4879 13.7749 26.215 14.4332C26.3526 14.557 26.77 14.8392 26.7792 15.0181C26.7907 15.2016 26.5705 15.7153 26.3664 15.7704L26.3686 15.775ZM24.8778 19.1535C24.247 19.2475 23.598 19.3897 22.9557 19.3026C22.9489 19.2269 22.9557 19.2567 23.0016 19.2475C23.3411 19.1764 23.77 18.9402 24.0544 18.7475C24.2516 18.6122 24.7402 18.1351 24.9627 18.1351C25.387 18.1397 24.9328 18.9723 24.8778 19.1535Z" fill="white"/>
<path d="M12.4624 22.2911C11.3798 22.1076 10.3545 23.5343 9.90499 24.298C9.616 24.7866 9.41874 25.36 9.03342 25.7912C8.5701 26.305 8.16643 26.4563 7.70541 25.8325C7.25815 25.2293 6.95539 24.1834 6.75814 23.1306C6.74209 23.1214 6.72603 23.1122 6.70997 23.1054C6.70997 23.1054 6.70998 23.1054 6.70768 23.1054C6.68933 23.11 6.67099 23.1145 6.65493 23.1191C6.64117 23.126 6.62511 23.1352 6.61135 23.1444C6.59988 23.1558 6.58612 23.1673 6.57465 23.1788C6.56548 23.1948 6.5563 23.2109 6.54713 23.2269C6.54484 23.2384 6.54484 23.2476 6.54254 23.259C6.69392 24.2407 7.11136 26.0573 7.87055 26.4495C9.03341 27.0458 9.76279 25.0389 10.1298 24.3669C10.4899 23.7086 11.1802 22.6696 11.9968 22.4609C12.2949 22.3852 12.5014 22.4953 12.7995 22.4815C12.8752 22.4196 12.5037 22.3026 12.4647 22.2957L12.4624 22.2911Z" fill="white"/>
<path d="M20.6529 10.9606C20.6529 10.9606 20.662 10.9216 20.685 10.9147C20.7721 10.8895 21.1024 10.8023 21.1689 10.8001C21.3409 10.7955 21.4327 10.995 21.4923 11.1189C21.6552 11.4652 21.724 11.8735 21.7607 12.2473C21.5359 12.0684 21.3547 11.1097 21.1208 11.0363C21.0497 11.0134 20.9694 11.0179 20.896 11.0317C20.373 11.1166 19.7675 11.5478 19.2377 11.479C18.9946 11.4469 18.873 11.1235 18.8569 10.9216C18.8225 10.5156 19.0588 10.1166 19.4579 9.95142C19.9602 9.7427 20.5588 10.0133 21.0542 10.1005C21.3776 10.1578 21.9189 10.1257 22.2561 10.1074C22.6781 10.0844 22.7813 9.80462 22.4121 9.57755C22.1208 9.39865 21.5542 9.32067 21.2079 9.21746C21.1758 9.20828 21.0841 9.18535 21.0841 9.14635C21.1483 9.14177 21.2102 9.14635 21.2744 9.15323C21.5221 9.18764 22.0428 9.30461 22.2676 9.39636C22.5956 9.52939 23.013 9.85508 22.9052 10.2267C22.8662 10.3 22.7102 10.3069 22.6277 10.3115C22.2584 10.3345 21.5313 10.3 21.1643 10.2519C20.6047 10.1785 19.5015 9.70829 19.1712 10.3689C18.9923 10.7267 18.9005 11.5386 19.5611 11.3574C19.8982 11.2634 20.2813 11.0707 20.6483 10.9583L20.6529 10.9606Z" fill="white"/>
<path d="M18.7125 11.6992C18.6597 11.6442 18.5955 11.5731 18.6092 11.4951C18.623 11.3896 18.8615 11.6694 18.8868 11.6923C19.4877 12.1717 20.6896 12.4882 21.4694 12.4194C21.6644 12.4034 21.8593 12.3185 22.0611 12.2864C22.2446 12.2566 22.6552 12.1602 22.6047 12.4492C22.5795 12.5983 22.2561 12.6901 22.1116 12.7038C21.0428 12.8002 19.4533 12.4676 18.7102 11.6992H18.7125Z" fill="white"/>
<path d="M20.4166 9.26334C20.2423 9.4239 19.9785 9.46518 19.7675 9.55463C19.3684 9.72436 18.3294 10.2427 17.951 10.2588C17.8409 10.2634 17.7629 10.2244 17.662 10.2014L18.3661 10.0455C19.0565 9.79317 19.6666 9.35967 20.4166 9.26334Z" fill="white"/>
</svg>
