<svg width="192" height="192" viewBox="0 0 192 192" fill="none" xmlns="http://www.w3.org/2000/svg">
<path d="M154 0H38C17.0132 0 0 17.0132 0 38V154C0 174.987 17.0132 192 38 192H154C174.987 192 192 174.987 192 154V38C192 17.0132 174.987 0 154 0Z" fill="#005F73"/>
<path d="M145.8 89.9866C145.167 87.9442 139.99 84.0669 138.188 82.2975C136.047 80.2005 131.919 76.1156 131.58 73.2759C131.329 71.2444 132.104 69.3003 132.29 67.3234C132.803 61.6876 128.282 50.8421 124.688 46.233C123.105 44.2015 121.04 42.585 119.14 40.8157C118.878 40.3023 120.254 40.0948 120.057 39.505C119.271 39.6798 118.878 40.204 117.971 40.0184C117.01 39.8218 116.388 38.1179 114.585 38.0087C112.084 37.8558 109.43 39.7562 108.032 41.5474C107.377 42.3884 106.689 43.5353 106.339 44.5073C107.77 42.9782 108.786 40.914 110.763 39.8873C112.969 38.7296 113.449 39.6907 115.186 40.6955C115.634 40.9577 116.824 41.0341 116.114 41.744L105.476 46.8228L105.4 46.2767C103.947 48.9635 100.966 49.4768 98.6829 51.4209C91.529 57.5264 89.6067 67.0831 91.2232 75.7006C91.6273 77.8085 92.3919 79.9056 92.6431 82.0354C87.2039 81.6749 82.1907 79.1083 77.8765 76.1812C71.6837 71.9871 62.7386 62.8126 54.2194 66.5589C51.2923 67.8477 46.7269 74.0841 46.0388 76.9785C45.9733 77.2624 45.9515 77.3389 46.301 77.2843C48.1359 73.7019 50.8773 67.8695 55.4536 66.8974C59.4947 66.0346 63.7762 68.0552 67.0419 70.1304C70.6352 72.424 73.3002 75.8644 76.5768 78.4966C81.4043 82.3739 84.812 83.3788 90.9938 84.5693C92.7523 84.9078 93.5496 84.4382 94.609 86.0983C96.007 88.2718 97.0119 91.3518 98.2024 93.7328C99.939 97.2279 102.167 100.537 103.893 104.021C107.748 111.842 109.103 120.568 107.945 129.098C107.879 129.59 108.141 130.201 107.552 130.245C107.617 130.595 107.563 130.944 107.388 131.25C107.333 131.337 107.268 131.425 107.202 131.49C107.3 131.512 107.388 131.523 107.442 131.599C107.442 131.599 107.475 131.654 107.486 131.687C106.787 135.105 104.69 138.491 102.691 141.418C100.813 144.171 95.3517 151.346 92.2608 152.46C90.9392 152.941 89.1699 153.007 88.1104 151.991C86.6687 150.582 86.2755 144.029 85.8933 141.866C85.3144 138.633 83.9055 133.991 82.0487 131.206C81.8303 130.868 81.3934 130.092 80.891 130.507C80.5633 130.966 81.732 133.118 81.9504 133.729C83.8618 139.278 83.6652 145.307 85.5984 150.789C86.625 153.717 88.1214 155.508 91.7256 154.383C95.9415 153.061 99.4366 147.939 101.73 144.575C104.439 140.61 106.765 136.569 108.109 132.004C108.414 131.829 111.582 133.074 112.193 133.249C118.67 135.105 131.318 138.491 134.889 130.955C136.921 126.641 134.005 125.429 134.048 121.366C134.616 120.568 134.835 118.591 135.49 117.969C135.971 117.499 137.314 117.499 137.871 117.106C138.384 116.735 139.138 115.074 139.127 114.463C139.116 113.207 137.631 112.082 137.838 111.23C137.893 111.011 139.346 110.061 139.586 109.81C142.207 107.123 138.941 104.906 138.712 102.121C138.57 100.33 139.433 98.2546 140.613 96.8456C141.344 95.9609 141.781 96.0592 142.6 95.5787C144.752 94.3008 146.609 92.5423 145.811 89.9647L145.8 89.9866ZM141.803 93.9185C141.202 95.9609 139.455 95.4039 137.675 95.7643C136.353 96.0265 134.911 96.649 133.568 96.9548C133.131 97.0531 131.973 97.3371 131.635 97.3262C131.056 97.3262 130.411 96.7145 130.39 96.1794C130.379 95.677 131.493 93.9403 131.908 93.5908C132.115 93.4161 133.317 92.7608 133.612 92.6625C134.966 92.171 139.051 91.6249 140.438 91.8761C141.694 92.1164 142.174 92.7171 141.814 93.9294L141.803 93.9185ZM142.994 94.0714C142.513 94.0823 142.95 93.2413 142.928 92.9355C142.917 92.2802 142.426 91.6467 141.759 91.4283C140.329 90.9586 137.784 91.2317 136.266 91.3518C135.479 91.4174 134.595 91.3628 133.819 91.6249C131.449 92.4003 127.364 95.9172 130.608 98.0033C131.984 98.888 134.54 97.4136 136.014 97.064C136.473 96.9658 139.433 96.5179 139.575 96.649C139.04 97.9924 137.926 99.2921 137.609 100.712C136.997 103.497 139.914 104.851 139.433 108.237C139.346 108.838 137.718 111.088 137.107 110.596C137.063 110.302 136.943 110.061 136.976 109.755C137.052 109.002 137.948 107.811 138.068 107.112C138.079 107.014 138.111 106.086 138.1 105.933C138.057 105.048 136.877 104.546 136.014 104.633C134.933 104.753 133.972 105.944 133.186 106.523C131.099 108.073 128.664 109.919 125.791 110.312C124.918 110.433 123.181 110.072 123.247 111.383C124.066 111.525 124.863 111.885 125.682 112.038C127.921 112.442 132.104 111.863 134.54 111.656C135.119 111.612 135.741 111.295 136.298 111.503C137.718 112.846 139.324 115.959 136.681 116.909C133.338 117.423 129.636 116.156 127.32 113.895L127.473 113.491C129.483 113.589 132.902 113.742 134.54 114.922C135.064 115.293 135.326 116.047 135.993 116.265C136.266 115.282 134.944 114.343 134.081 113.982C132.672 113.382 128.489 112.835 126.971 113.021C126.774 113.054 126.206 113.174 126.163 113.36C126.206 113.611 126.392 113.851 126.545 114.059C127.233 114.987 130.095 116.418 131.263 116.866C131.766 117.062 134.387 117.75 134.463 117.969C133.994 119.192 133.022 120.404 133.011 121.748C133 125.123 135.807 127.46 134.158 131.075C132.683 134.297 128.992 134.363 125.791 135.094C119.741 134.559 114.007 132.582 108.414 130.529C108.371 130.518 108.338 130.496 108.305 130.485C108.262 127.416 109.266 124.413 109.113 121.333C108.895 116.56 107.803 111.612 106.012 107.156C102.953 99.5652 98.0931 92.7062 94.8602 85.1809C94.9476 84.9843 95.1224 84.886 95.3408 84.8423C96.1381 84.7003 97.7 85.0171 98.6939 84.9734C106.492 84.7331 116.955 81.7623 120.68 90.5327C122.799 95.5022 121.641 99.0737 120.101 103.934C119.391 106.184 118.594 107.56 117.665 109.657C117.239 110.618 116.934 111.634 116.53 112.595C116.803 112.464 116.999 112.115 117.141 111.874C118.474 109.548 120.025 105.9 120.822 103.388C122.853 96.9111 123.345 89.0691 116.519 84.9188C109.791 80.8339 101.195 82.8982 93.637 82.3412C93.5168 82.2647 92.938 80.2988 92.8506 79.9602C90.4368 71.4192 90.8519 58.9681 98.0167 52.393C99.0543 51.4319 101.818 49.6407 103.172 49.1929C103.39 49.1164 103.347 49.0181 103.565 49.2802C103.019 50.3615 102.484 51.4974 102.069 52.6333C100.682 56.3795 99.7642 60.7483 100.234 64.713C100.256 64.9424 100.31 65.3028 100.66 65.2045C100.07 60.0603 101.315 54.49 103.74 49.8482C104.439 48.5266 104.701 47.9696 106.001 47.074C108.24 45.5231 111.254 44.4964 113.777 43.3277C115.35 42.6069 116.551 41.2853 118.375 42.4977C121.597 44.6493 125.496 50.3834 127.2 53.7255C128.598 56.4451 130.706 61.5129 130.968 64.4509C131.274 68.0661 129.057 70.1959 130.564 74.3026C132.115 78.4966 138.8 84.5474 142.262 87.682C142.917 88.2718 144.905 89.6152 144.949 90.4671C145.003 91.3409 143.955 93.7874 142.983 94.0496L142.994 94.0714ZM135.894 110.16C132.891 110.607 129.8 111.285 126.742 110.869C126.709 110.509 126.742 110.651 126.96 110.607C128.576 110.269 130.619 109.144 131.973 108.226C132.913 107.582 135.239 105.31 136.298 105.31C138.319 105.332 136.156 109.297 135.894 110.16Z" fill="white"/>
<path d="M76.7733 125.101C71.6181 124.227 66.736 131.021 64.5953 134.658C63.2191 136.984 62.2798 139.714 60.4449 141.768C58.2387 144.214 56.3164 144.935 54.1211 141.964C51.9913 139.092 50.5496 134.111 49.6103 129.098C49.5338 129.055 49.4574 129.011 49.3809 128.978C49.3809 128.978 49.3809 128.978 49.37 128.978C49.2826 129 49.1953 129.022 49.1188 129.044C49.0533 129.076 48.9768 129.12 48.9113 129.164C48.8567 129.218 48.7911 129.273 48.7365 129.328C48.6928 129.404 48.6492 129.481 48.6055 129.557C48.5945 129.612 48.5945 129.655 48.5836 129.71C49.3045 134.385 51.2923 143.035 54.9075 144.902C60.4449 147.742 63.9181 138.185 65.6656 134.985C67.3804 131.851 70.6679 126.903 74.5562 125.909C75.976 125.549 76.959 126.073 78.3789 126.007C78.7393 125.712 76.9699 125.155 76.7843 125.123L76.7733 125.101Z" fill="white"/>
<path d="M115.776 71.146C115.776 71.146 115.82 70.9604 115.929 70.9276C116.344 70.8075 117.917 70.3924 118.233 70.3815C119.052 70.3597 119.489 71.3099 119.773 71.8997C120.549 73.5489 120.876 75.493 121.051 77.2733C119.981 76.4214 119.118 71.856 118.004 71.5065C117.665 71.3973 117.283 71.4191 116.934 71.4846C114.443 71.8887 111.56 73.9421 109.037 73.6144C107.879 73.4615 107.3 71.9215 107.224 70.9604C107.06 69.0272 108.185 67.1267 110.086 66.3404C112.477 65.3465 115.328 66.6353 117.687 67.0503C119.227 67.3234 121.805 67.1704 123.41 67.0831C125.42 66.9738 125.911 65.6414 124.153 64.5601C122.766 63.7082 120.068 63.3368 118.419 62.8453C118.266 62.8016 117.829 62.6924 117.829 62.5067C118.135 62.4849 118.43 62.5067 118.736 62.5395C119.915 62.7033 122.395 63.2604 123.465 63.6972C125.027 64.3307 127.015 65.8816 126.501 67.651C126.316 68.0005 125.573 68.0333 125.18 68.0551C123.421 68.1643 119.959 68.0005 118.212 67.7711C115.547 67.4216 110.293 65.1826 108.72 68.3282C107.868 70.032 107.431 73.8984 110.577 73.0356C112.183 72.5878 114.007 71.6703 115.754 71.1351L115.776 71.146Z" fill="white"/>
<path d="M106.536 74.6629C106.285 74.4008 105.979 74.0622 106.044 73.6908C106.11 73.1884 107.246 74.5209 107.366 74.6301C110.228 76.9128 115.951 78.4201 119.664 78.0924C120.593 78.016 121.521 77.6119 122.482 77.4589C123.356 77.317 125.311 76.8582 125.071 78.2344C124.95 78.9443 123.41 79.3812 122.722 79.4468C117.633 79.9055 110.064 78.3218 106.525 74.6629H106.536Z" fill="white"/>
<path d="M114.651 63.0637C113.821 63.8283 112.565 64.0249 111.56 64.4508C109.66 65.2591 104.712 67.7274 102.91 67.8039C102.385 67.8257 102.014 67.6401 101.534 67.5308L104.887 66.7881C108.174 65.5867 111.079 63.5225 114.651 63.0637Z" fill="white"/>
</svg>
