<svg width="512" height="512" viewBox="0 0 512 512" fill="none" xmlns="http://www.w3.org/2000/svg">
<path d="M410 0H102C45.667 0 0 45.667 0 102V410C0 466.333 45.667 512 102 512H410C466.333 512 512 466.333 512 410V102C512 45.667 466.333 0 410 0Z" fill="#005F73"/>
<path d="M379.507 240.407C377.943 235.362 365.155 225.785 360.704 221.415C355.416 216.235 345.219 206.145 344.383 199.131C343.762 194.114 345.678 189.312 346.136 184.429C347.404 170.508 336.236 143.72 327.36 132.335C323.448 127.318 318.35 123.325 313.655 118.955C313.008 117.687 316.407 117.174 315.922 115.717C313.979 116.149 313.008 117.444 310.769 116.985C308.395 116.5 306.857 112.291 302.406 112.021C296.228 111.644 289.673 116.338 286.22 120.762C284.601 122.839 282.901 125.672 282.038 128.073C285.572 124.296 288.081 119.197 292.964 116.661C298.413 113.802 299.6 116.176 303.89 118.658C304.996 119.305 307.936 119.494 306.183 121.248L279.907 133.792L279.718 132.443C276.13 139.08 268.765 140.348 263.127 145.15C245.457 160.23 240.709 183.835 244.701 205.12C245.699 210.327 247.588 215.507 248.208 220.767C234.774 219.877 222.391 213.537 211.735 206.307C196.439 195.948 174.344 173.287 153.302 182.54C146.072 185.724 134.795 201.128 133.096 208.277C132.934 208.978 132.88 209.167 133.743 209.032C138.276 200.183 145.047 185.778 156.35 183.377C166.332 181.245 176.907 186.236 184.973 191.362C193.849 197.027 200.431 205.525 208.525 212.027C220.449 221.603 228.866 224.085 244.135 227.026C248.478 227.862 250.447 226.702 253.064 230.803C256.517 236.171 258.999 243.779 261.94 249.66C266.229 258.293 271.733 266.467 275.995 275.073C285.518 294.388 288.863 315.943 286.004 337.013C285.842 338.227 286.489 339.737 285.033 339.845C285.194 340.709 285.059 341.572 284.628 342.327C284.493 342.543 284.331 342.759 284.169 342.921C284.412 342.975 284.628 343.002 284.763 343.19C284.763 343.19 284.844 343.325 284.871 343.406C283.144 351.85 277.964 360.213 273.028 367.443C268.387 374.241 254.899 391.966 247.264 394.717C244 395.904 239.63 396.066 237.013 393.557C233.452 390.077 232.481 373.891 231.536 368.549C230.107 360.564 226.626 349.099 222.04 342.219C221.501 341.383 220.422 339.468 219.181 340.493C218.371 341.626 221.258 346.94 221.798 348.451C226.519 362.156 226.033 377.047 230.808 390.59C233.344 397.82 237.04 402.244 245.942 399.465C256.356 396.201 264.988 383.549 270.654 375.24C277.344 365.447 283.09 355.465 286.408 344.189C287.164 343.757 294.987 346.832 296.498 347.264C312.495 351.85 343.735 360.213 352.557 341.599C357.575 330.943 350.372 327.948 350.48 317.913C351.882 315.943 352.422 311.06 354.041 309.523C355.228 308.363 358.546 308.363 359.922 307.392C361.19 306.474 363.051 302.374 363.024 300.863C362.997 297.761 359.328 294.982 359.841 292.878C359.976 292.338 363.564 289.991 364.157 289.371C370.632 282.734 362.565 277.258 361.999 270.379C361.648 265.954 363.779 260.829 366.693 257.348C368.5 255.163 369.58 255.406 371.603 254.219C376.917 251.063 381.504 246.719 379.534 240.353L379.507 240.407ZM369.634 250.119C368.15 255.163 363.833 253.787 359.436 254.678C356.172 255.325 352.611 256.863 349.293 257.618C348.214 257.861 345.354 258.562 344.518 258.535C343.088 258.535 341.496 257.025 341.442 255.703C341.415 254.462 344.167 250.172 345.192 249.309C345.705 248.878 348.672 247.259 349.4 247.016C352.746 245.802 362.835 244.453 366.261 245.074C369.364 245.667 370.551 247.151 369.661 250.146L369.634 250.119ZM372.574 250.496C371.387 250.523 372.466 248.446 372.412 247.691C372.385 246.072 371.171 244.507 369.526 243.968C365.992 242.808 359.706 243.482 355.956 243.779C354.014 243.941 351.828 243.806 349.913 244.453C344.059 246.369 333.969 255.055 341.982 260.208C345.381 262.393 351.694 258.751 355.336 257.888C356.469 257.645 363.779 256.539 364.13 256.863C362.808 260.181 360.057 263.391 359.274 266.898C357.763 273.778 364.966 277.123 363.779 285.486C363.564 286.97 359.544 292.527 358.033 291.313C357.925 290.585 357.629 289.991 357.71 289.236C357.898 287.374 360.111 284.434 360.407 282.707C360.434 282.464 360.515 280.171 360.488 279.794C360.38 277.609 357.467 276.368 355.336 276.583C352.665 276.88 350.291 279.821 348.348 281.25C343.196 285.081 337.18 289.64 330.085 290.612C327.926 290.908 323.637 290.018 323.799 293.255C325.822 293.606 327.792 294.496 329.815 294.874C335.345 295.872 345.678 294.442 351.694 293.93C353.123 293.822 354.661 293.04 356.037 293.552C359.544 296.87 363.51 304.559 356.981 306.906C348.726 308.174 339.581 305.044 333.862 299.46L334.239 298.462C339.203 298.705 347.647 299.082 351.694 301.996C352.988 302.913 353.636 304.775 355.282 305.314C355.956 302.886 352.692 300.566 350.561 299.676C347.08 298.192 336.748 296.843 332.998 297.302C332.513 297.383 331.11 297.68 331.002 298.138C331.11 298.759 331.568 299.352 331.946 299.865C333.646 302.158 340.714 305.692 343.6 306.798C344.841 307.284 351.316 308.983 351.505 309.523C350.345 312.544 347.944 315.539 347.917 318.857C347.89 327.193 354.823 332.966 350.749 341.896C347.107 349.854 337.989 350.016 330.085 351.823C315.139 350.501 300.976 345.618 287.164 340.547C287.056 340.52 286.975 340.466 286.894 340.439C286.786 332.858 289.268 325.439 288.89 317.832C288.351 306.043 285.653 293.822 281.229 282.815C273.675 264.066 261.67 247.124 253.685 228.537C253.901 228.051 254.332 227.808 254.872 227.7C256.841 227.35 260.699 228.132 263.154 228.024C282.416 227.431 308.26 220.093 317.459 241.756C322.693 254.03 319.833 262.852 316.029 274.857C314.276 280.414 312.307 283.813 310.014 288.993C308.961 291.367 308.206 293.876 307.208 296.25C307.882 295.926 308.368 295.063 308.719 294.469C312.01 288.723 315.841 279.713 317.81 273.508C322.828 257.51 324.042 238.141 307.181 227.889C290.563 217.8 269.332 222.898 250.663 221.523C250.367 221.334 248.937 216.478 248.721 215.641C242.759 194.545 243.784 163.791 261.481 147.551C264.044 145.177 270.869 140.752 274.215 139.646C274.754 139.457 274.646 139.215 275.186 139.862C273.837 142.533 272.515 145.338 271.49 148.144C268.064 157.397 265.798 168.188 266.958 177.981C267.012 178.548 267.147 179.438 268.01 179.195C266.553 166.489 269.628 152.73 275.617 141.265C277.344 138.001 277.991 136.625 281.202 134.413C286.732 130.582 294.178 128.046 300.41 125.159C304.294 123.379 307.262 120.115 311.767 123.109C319.725 128.424 329.356 142.587 333.565 150.842C337.018 157.559 342.225 170.077 342.872 177.334C343.627 186.263 338.151 191.524 341.874 201.667C345.705 212.027 362.215 226.972 370.767 234.714C372.385 236.171 377.295 239.489 377.403 241.594C377.538 243.752 374.948 249.795 372.547 250.442L372.574 250.496ZM355.039 290.234C347.62 291.34 339.985 293.013 332.432 291.987C332.351 291.097 332.432 291.448 332.971 291.34C336.964 290.504 342.009 287.725 345.354 285.459C347.674 283.867 353.42 278.256 356.037 278.256C361.028 278.31 355.686 288.103 355.039 290.234Z" fill="white"/>
<path d="M209.01 327.139C196.277 324.981 184.218 341.761 178.93 350.744C175.531 356.49 173.211 363.235 168.679 368.306C163.23 374.349 158.482 376.13 153.059 368.792C147.799 361.697 144.238 349.395 141.917 337.013C141.729 336.905 141.54 336.797 141.351 336.716C141.351 336.716 141.351 336.716 141.324 336.716C141.108 336.77 140.892 336.824 140.703 336.878C140.542 336.959 140.353 337.067 140.191 337.175C140.056 337.309 139.894 337.444 139.759 337.579C139.651 337.768 139.543 337.957 139.436 338.146C139.409 338.281 139.409 338.389 139.382 338.523C141.162 350.07 146.072 371.436 155.001 376.049C168.679 383.063 177.258 359.458 181.574 351.553C185.81 343.811 193.93 331.59 203.534 329.135C207.041 328.245 209.469 329.54 212.976 329.378C213.866 328.65 209.496 327.274 209.037 327.193L209.01 327.139Z" fill="white"/>
<path d="M305.346 193.871C305.346 193.871 305.454 193.412 305.724 193.331C306.749 193.034 310.634 192.009 311.416 191.982C313.44 191.928 314.519 194.275 315.22 195.732C317.136 199.806 317.945 204.608 318.376 209.005C315.733 206.901 313.602 195.624 310.85 194.761C310.014 194.491 309.069 194.545 308.206 194.707C302.055 195.705 294.933 200.777 288.701 199.968C285.842 199.59 284.412 195.786 284.223 193.412C283.819 188.637 286.597 183.943 291.291 182.001C297.199 179.546 304.24 182.729 310.068 183.754C313.871 184.429 320.238 184.051 324.204 183.835C329.167 183.565 330.381 180.274 326.038 177.603C322.612 175.499 315.949 174.582 311.875 173.368C311.497 173.26 310.418 172.99 310.418 172.532C311.174 172.478 311.902 172.532 312.657 172.612C315.571 173.017 321.695 174.393 324.339 175.472C328.196 177.037 333.106 180.868 331.838 185.238C331.38 186.101 329.545 186.182 328.574 186.236C324.231 186.506 315.679 186.101 311.362 185.535C304.78 184.671 291.804 179.141 287.919 186.911C285.815 191.119 284.736 200.669 292.505 198.538C296.471 197.432 300.976 195.166 305.293 193.844L305.346 193.871Z" fill="white"/>
<path d="M282.524 202.558C281.903 201.91 281.148 201.074 281.31 200.157C281.472 198.916 284.277 202.207 284.574 202.477C291.642 208.115 305.778 211.838 314.95 211.028C317.244 210.84 319.537 209.841 321.911 209.464C324.069 209.113 328.898 207.98 328.304 211.379C328.008 213.133 324.204 214.212 322.504 214.374C309.933 215.507 291.237 211.595 282.497 202.558H282.524Z" fill="white"/>
<path d="M302.568 173.907C300.518 175.796 297.415 176.281 294.933 177.334C290.239 179.33 278.018 185.427 273.567 185.616C272.272 185.67 271.355 185.211 270.168 184.941L278.45 183.107C286.57 180.139 293.746 175.04 302.568 173.907Z" fill="white"/>
</svg>
